<mxfile host="app.diagrams.net" modified="2024-07-18T07:00:00.354Z" agent="Mozilla/5.0 (Macintosh; Intel Mac OS X 10_15_7) AppleWebKit/537.36 (KHTML, like Gecko) Chrome/126.0.0.0 Safari/537.36" version="24.7.1" etag="lw8yJ7O9biC6bObUMQlu" type="github">
  <diagram name="Page-1" id="Tj-H4049LBWvIilNkPSa">
    <mxGraphModel>
      <root>
        <mxCell id="0" />
        <mxCell id="1" parent="0" />
      </root>
    </mxGraphModel>
  </diagram>
</mxfile>
